<svg xmlns="http://www.w3.org/2000/svg" xmlns:xlink="http://www.w3.org/1999/xlink" viewBox="0 0 81 62" fill="#fff" fill-rule="evenodd" stroke="#000" stroke-linecap="round" stroke-linejoin="round"><use xlink:href="#A" x=".5" y=".5"/><symbol id="A" overflow="visible"><g stroke="none" fill-rule="nonzero"><path d="M5.455 60.014h12.727V29.105L0 15.469V54.56c0 3.014 2.441 5.455 5.455 5.455z" fill="#4285f4"/><path d="M61.818 60.014h12.727c3.014 0 5.455-2.441 5.455-5.455V15.469L61.818 29.105z" fill="#34a853"/><path d="M61.818 5.469v23.636L80 15.469V8.197c0-6.741-7.695-10.591-13.091-6.545z" fill="#fbbc04"/><path d="M18.182 29.105V5.469L40 21.833 61.818 5.469v23.636L40 45.469z" fill="#ea4335"/><path d="M0 8.197v7.273l18.182 13.636V5.469l-5.091-3.818C7.695-2.394 0 1.456 0 8.197z" fill="#c5221f"/></g></symbol></svg>